<svg width="35" height="35" viewBox="0 0 35 35" fill="none" xmlns="http://www.w3.org/2000/svg">
<g clip-path="url(#clip0_24_869)">
<path d="M12.8466 21.7584L21.757 5.66278C21.8795 5.44111 22.002 5.22236 22.1128 4.9934C22.2134 4.78632 22.298 4.57778 22.3534 4.35174C22.4701 3.87632 22.438 3.38049 22.2572 2.92695C22.0816 2.48011 21.7639 2.10346 21.353 1.85507C20.9499 1.61099 20.4756 1.51171 20.0084 1.57361C19.5418 1.63632 19.1145 1.85653 18.7776 2.2007C18.6172 2.36111 18.4859 2.5434 18.3649 2.73736C18.2307 2.95028 18.1097 3.17195 17.9872 3.39361L17.4243 4.41007L16.8599 3.39215C16.7374 3.17195 16.6164 2.95028 16.4822 2.73736C16.364 2.54391 16.2257 2.36353 16.0695 2.19924C15.7408 1.85885 15.3074 1.63856 14.8387 1.57361C14.372 1.51205 13.8982 1.61132 13.4955 1.85507C13.0847 2.10346 12.767 2.48011 12.5914 2.92695C12.4112 3.38015 12.3775 3.87842 12.4951 4.35174C12.5505 4.57778 12.6351 4.78632 12.7343 4.9934C12.8451 5.22236 12.9676 5.44111 13.0901 5.66278L14.9101 8.94986L7.81969 21.7569H2.96053C2.71553 21.7569 2.47053 21.7569 2.22698 21.7715C2.00532 21.7847 1.78948 21.8124 1.57365 21.8751C1.12157 22.0063 0.724901 22.2834 0.439068 22.6742C0.153313 23.0676 -0.000714288 23.5412 -0.000976228 24.0273C-0.00123817 24.5135 0.152279 24.9873 0.437609 25.3809C0.724901 25.7717 1.12011 26.0474 1.57365 26.1801C1.78948 26.2428 2.00532 26.2705 2.22698 26.2836C2.47053 26.2982 2.71553 26.2982 2.96053 26.2982H22.0603C22.1183 26.1706 22.1671 26.039 22.2062 25.9044C22.8114 23.8394 21.3078 21.7569 19.2384 21.7569L12.8466 21.7584ZM4.5399 27.0405L3.3849 29.228C3.26532 29.4555 3.14428 29.6801 3.03636 29.9149C2.93677 30.1262 2.85861 30.3471 2.80303 30.574C2.68601 31.0599 2.71854 31.5697 2.89636 32.0367C3.07282 32.5005 3.38344 32.8869 3.78157 33.1378C4.17969 33.3886 4.64053 33.4907 5.09553 33.4251C5.55344 33.3609 5.97053 33.1363 6.30011 32.7834C6.45761 32.6157 6.58594 32.4305 6.70553 32.2322C6.83678 32.0134 6.9549 31.7859 7.07448 31.5584L8.75011 28.3851C8.61886 28.1663 7.36907 26.2413 4.5399 27.0405ZM34.5611 22.6567C34.2798 22.276 33.8804 21.9991 33.4251 21.8692C33.212 21.8101 32.9928 21.7753 32.7718 21.7657C32.5268 21.7511 32.2832 21.7511 32.0382 21.7511H27.1951L20.793 10.3542C19.9527 11.2359 19.4048 12.3552 19.2239 13.5597C18.9888 15.066 19.2694 16.6077 20.0201 17.9347L27.7114 31.6328C27.8339 31.8515 27.9549 32.0703 28.0891 32.2803C28.2116 32.4699 28.3428 32.6492 28.5018 32.8111C28.8387 33.1494 29.2659 33.3653 29.7341 33.428C30.2022 33.4907 30.6718 33.393 31.0787 33.1509C31.4879 32.9061 31.8059 32.5343 31.9843 32.0922C32.1666 31.6444 32.1972 31.1559 32.0805 30.6863C32.0229 30.4675 31.9422 30.2553 31.8399 30.0534C31.7305 29.8274 31.6066 29.6115 31.4841 29.3928L29.7107 26.234H32.0382C32.2832 26.234 32.5268 26.234 32.7718 26.2209C32.9934 26.2078 33.2093 26.1801 33.4251 26.1188C33.8811 25.9889 34.2811 25.7114 34.5626 25.3299C34.8476 24.9429 35.001 24.4746 35.0001 23.994C35.001 23.5134 34.8476 23.0452 34.5626 22.6582" fill="white"/>
</g>
<defs>
<clipPath id="clip0_24_869">
<rect width="35" height="35" fill="white"/>
</clipPath>
</defs>
</svg>
