<svg width="25" height="26" viewBox="0 0 25 26" fill="none" xmlns="http://www.w3.org/2000/svg">
<path d="M21.699 5.0481L19.9731 3.87599C19.7439 3.72175 19.4631 3.66422 19.1918 3.7159C18.9204 3.76757 18.6805 3.92428 18.524 4.15195L10.075 16.6125L6.19134 12.7289C5.99513 12.5348 5.73029 12.426 5.45432 12.426C5.17835 12.426 4.91351 12.5348 4.7173 12.7289L3.24326 14.2058C3.14633 14.3026 3.06944 14.4176 3.01697 14.5441C2.9645 14.6707 2.9375 14.8063 2.9375 14.9433C2.9375 15.0803 2.9645 15.2159 3.01697 15.3425C3.06944 15.469 3.14633 15.584 3.24326 15.6808L9.21345 21.6539C9.54903 21.9875 10.074 22.2452 10.5471 22.2452C11.0202 22.2452 11.4971 21.9471 11.8038 21.501L21.9769 6.49522C22.1316 6.26636 22.1892 5.98549 22.1371 5.71421C22.0851 5.44293 21.9275 5.20338 21.699 5.0481Z" fill="#F38218"/>
</svg>
