<svg width="35" height="35" viewBox="0 0 35 35" fill="none" xmlns="http://www.w3.org/2000/svg">
<path fill-rule="evenodd" clip-rule="evenodd" d="M9.36241 7.04372C9.0514 6.75392 8.64005 6.59615 8.21502 6.60365C7.78998 6.61115 7.38445 6.78333 7.08386 7.08392C6.78327 7.38451 6.61109 7.79004 6.60359 8.21508C6.59609 8.64011 6.75386 9.05146 7.04366 9.36247L15.1812 17.5L7.04366 25.6375C6.88247 25.7877 6.75318 25.9688 6.66351 26.17C6.57384 26.3713 6.52563 26.5885 6.52174 26.8088C6.51785 27.0291 6.55838 27.2479 6.64089 27.4522C6.72341 27.6565 6.84622 27.8421 7.00201 27.9979C7.1578 28.1537 7.34338 28.2765 7.54766 28.359C7.75195 28.4415 7.97076 28.482 8.19105 28.4781C8.41134 28.4743 8.62859 28.426 8.82984 28.3364C9.03108 28.2467 9.21221 28.1174 9.36241 27.9562L17.4999 19.8187L25.6374 27.9562C25.7876 28.1174 25.9687 28.2467 26.17 28.3364C26.3712 28.426 26.5885 28.4743 26.8088 28.4781C27.0291 28.482 27.2479 28.4415 27.4522 28.359C27.6564 28.2765 27.842 28.1537 27.9978 27.9979C28.1536 27.8421 28.2764 27.6565 28.3589 27.4522C28.4414 27.2479 28.482 27.0291 28.4781 26.8088C28.4742 26.5885 28.426 26.3713 28.3363 26.17C28.2466 25.9688 28.1174 25.7877 27.9562 25.6375L19.8187 17.5L27.9562 9.36247C28.246 9.05146 28.4037 8.64011 28.3962 8.21508C28.3887 7.79004 28.2165 7.38451 27.916 7.08392C27.6154 6.78333 27.2098 6.61115 26.7848 6.60365C26.3598 6.59615 25.9484 6.75392 25.6374 7.04372L17.4999 15.1812L9.36241 7.04372Z" fill="white"/>
</svg>
