<svg width="50" height="50" viewBox="0 0 50 50" fill="none" xmlns="http://www.w3.org/2000/svg">
<circle cx="25" cy="25" r="24.5" stroke="#F8B735"/>
<path d="M18.2083 34.25V32.7917C18.2083 30.8578 18.9765 29.0031 20.3439 27.6357C21.7114 26.2682 23.566 25.5 25.4999 25.5M25.4999 25.5C27.4338 25.5 29.2885 26.2682 30.6559 27.6357C32.0234 29.0031 32.7916 30.8578 32.7916 32.7917V34.25M25.4999 25.5C26.6602 25.5 27.773 25.0391 28.5935 24.2186C29.414 23.3981 29.8749 22.2853 29.8749 21.125C29.8749 19.9647 29.414 18.8519 28.5935 18.0314C27.773 17.2109 26.6602 16.75 25.4999 16.75C24.3396 16.75 23.2268 17.2109 22.4063 18.0314C21.5859 18.8519 21.1249 19.9647 21.1249 21.125C21.1249 22.2853 21.5859 23.3981 22.4063 24.2186C23.2268 25.0391 24.3396 25.5 25.4999 25.5ZM9.45825 34.25V32.7917C9.45825 31.6313 9.91919 30.5185 10.7397 29.6981C11.5601 28.8776 12.6729 28.4167 13.8333 28.4167M13.8333 28.4167C14.6068 28.4167 15.3487 28.1094 15.8956 27.5624C16.4426 27.0154 16.7499 26.2735 16.7499 25.5C16.7499 24.7265 16.4426 23.9846 15.8956 23.4376C15.3487 22.8906 14.6068 22.5833 13.8333 22.5833C13.0597 22.5833 12.3178 22.8906 11.7709 23.4376C11.2239 23.9846 10.9166 24.7265 10.9166 25.5C10.9166 26.2735 11.2239 27.0154 11.7709 27.5624C12.3178 28.1094 13.0597 28.4167 13.8333 28.4167ZM41.5416 34.25V32.7917C41.5416 31.6313 41.0806 30.5185 40.2602 29.6981C39.4397 28.8776 38.3269 28.4167 37.1666 28.4167M37.1666 28.4167C37.9401 28.4167 38.682 28.1094 39.229 27.5624C39.776 27.0154 40.0833 26.2735 40.0833 25.5C40.0833 24.7265 39.776 23.9846 39.229 23.4376C38.682 22.8906 37.9401 22.5833 37.1666 22.5833C36.393 22.5833 35.6512 22.8906 35.1042 23.4376C34.5572 23.9846 34.2499 24.7265 34.2499 25.5C34.2499 26.2735 34.5572 27.0154 35.1042 27.5624C35.6512 28.1094 36.393 28.4167 37.1666 28.4167Z" stroke="#F8B735" stroke-width="2.5" stroke-linecap="round" stroke-linejoin="round"/>
</svg>
