<svg width="31" height="30" viewBox="0 0 31 30" fill="none" xmlns="http://www.w3.org/2000/svg">
<path d="M29.4144 21.75V8.25C29.4144 7.005 28.4094 6 27.1644 6H6.14941C4.90441 6 3.89941 7.005 3.89941 8.25V21.75C3.89941 22.995 4.90441 24 6.14941 24H27.1644C28.4094 24 29.4144 22.995 29.4144 21.75ZM27.4494 8.085C27.9444 8.58 27.6744 9.09 27.4044 9.345L21.3144 14.925L27.1644 21.015C27.3444 21.225 27.4644 21.555 27.2544 21.78C27.0594 22.02 26.6094 22.005 26.4144 21.855L19.8594 16.26L16.6494 19.185L13.4544 16.26L6.89941 21.855C6.70441 22.005 6.25441 22.02 6.05941 21.78C5.84941 21.555 5.96941 21.225 6.14941 21.015L11.9994 14.925L5.90941 9.345C5.63941 9.09 5.36941 8.58 5.86441 8.085C6.35941 7.59 6.86941 7.83 7.28941 8.19L16.6494 15.75L26.0244 8.19C26.4444 7.83 26.9544 7.59 27.4494 8.085Z" fill="#571217"/>
</svg>
