<svg width="30" height="30" viewBox="0 0 30 30" fill="none" xmlns="http://www.w3.org/2000/svg">
<path d="M28.5001 21.75V8.25C28.5001 7.005 27.4951 6 26.2501 6H5.23511C3.99011 6 2.98511 7.005 2.98511 8.25V21.75C2.98511 22.995 3.99011 24 5.23511 24H26.2501C27.4951 24 28.5001 22.995 28.5001 21.75ZM26.5351 8.085C27.0301 8.58 26.7601 9.09 26.4901 9.345L20.4001 14.925L26.2501 21.015C26.4301 21.225 26.5501 21.555 26.3401 21.78C26.1451 22.02 25.6951 22.005 25.5001 21.855L18.9451 16.26L15.7351 19.185L12.5401 16.26L5.98511 21.855C5.79011 22.005 5.34011 22.02 5.14511 21.78C4.93511 21.555 5.05511 21.225 5.23511 21.015L11.0851 14.925L4.99511 9.345C4.72511 9.09 4.45511 8.58 4.95011 8.085C5.44511 7.59 5.95511 7.83 6.37511 8.19L15.7351 15.75L25.1101 8.19C25.5301 7.83 26.0401 7.59 26.5351 8.085Z" fill="#F38218"/>
</svg>
