<svg width="50" height="50" viewBox="0 0 50 50" fill="none" xmlns="http://www.w3.org/2000/svg">
<circle cx="25" cy="25" r="24.5" stroke="#571217"/>
<path d="M30.545 24.1117L34.84 18.4577L37.7699 20.6834L33.4749 26.3402L30.545 24.1117ZM29.6659 23.4602L34.233 17.4446L31.1568 15.1101L26.5897 21.1257L29.6659 23.4602ZM27.7874 16.776L26.468 19.481L30.3645 14.3541L27.4585 12.146L24.9812 15.4075L27.7874 16.776ZM26.3696 11.7694L23.1813 9.34741L20.3102 13.1284L23.9791 14.9173L26.3696 11.7694ZM33.684 27.8694L24.1821 20.8482L23.504 20.9104L23.8157 21.0471L28.0649 30.5101L26.9356 30.6639L22.9926 21.8797L20.2583 20.6698L19.9848 18.5616L22.6789 19.8891L25.1644 19.6615L26.3265 17.2805L18.7455 13.583L13.2302 21.2741L20.1407 31.6982L18.5889 41.6527H31.3106V33.4721L33.723 30.1273L34.4551 26.8515L33.684 27.8694Z" fill="#571217"/>
</svg>
