<svg width="50" height="50" viewBox="0 0 50 50" fill="none" xmlns="http://www.w3.org/2000/svg">
<circle cx="25" cy="25" r="24.5" stroke="#1A760D"/>
<path d="M24.8508 13.2676L24.9646 13.2746H28.9826L29.0753 13.2693C29.5734 13.2149 30.0761 13.2184 30.5733 13.2798C31.2397 13.3123 31.8897 13.4966 32.4738 13.8188C33.5763 14.3193 34.5388 15.1261 35.2248 16.1813C35.8572 17.1511 36.2148 18.274 36.2598 19.4308C36.3048 20.5876 36.0354 21.7349 35.4803 22.7508L29.8541 17.0528C29.7726 16.9706 29.6755 16.9053 29.5686 16.8609C29.4616 16.8164 29.3469 16.7936 29.2311 16.7938H26.9018C26.7111 16.7936 26.5255 16.8556 26.3733 16.9706L22.6143 19.8178C22.3845 19.9914 22.1191 20.112 21.8372 20.171C21.5553 20.23 21.2638 20.2259 20.9837 20.159C20.7035 20.0921 20.4417 19.964 20.2168 19.784C19.992 19.604 19.8097 19.3765 19.6831 19.1178C19.4893 18.7182 19.4403 18.2636 19.5443 17.8318C19.6483 17.4 19.899 17.0176 20.2536 16.7501L24.8508 13.2676ZM17.8561 28.7638L17.8316 28.7866L16.4963 30.1166L16.4736 30.1376C16.2749 30.3238 16.0116 30.4255 15.7392 30.4213C15.4669 30.4171 15.2069 30.3072 15.0141 30.1148C14.9165 30.0188 14.8389 29.9042 14.786 29.7779C14.7331 29.6515 14.7058 29.5159 14.7058 29.379C14.7058 29.242 14.7331 29.1064 14.786 28.98C14.8389 28.8537 14.9165 28.7392 15.0141 28.6431L16.3511 27.3148C16.5479 27.1187 16.8144 27.0086 17.0922 27.0086C17.37 27.0086 17.6365 27.1187 17.8333 27.3148C18.2358 27.7138 18.2428 28.3561 17.8561 28.7638ZM17.7143 31.3713C17.3293 31.7791 17.3363 32.4213 17.7371 32.8203C17.9339 33.0164 18.2004 33.1265 18.4782 33.1265C18.756 33.1265 19.0225 33.0164 19.2193 32.8203L20.5563 31.4921C20.666 31.3833 20.75 31.2514 20.8022 31.106C20.8543 30.9606 20.8732 30.8054 20.8576 30.6517C20.842 30.4981 20.7923 30.3498 20.712 30.2179C20.6317 30.0859 20.5229 29.9736 20.3936 29.8891C20.1969 29.7592 19.9622 29.6992 19.7273 29.7189C19.4924 29.7386 19.2709 29.8368 19.0986 29.9976L19.0741 30.0203L17.7388 31.3486L17.7143 31.3713ZM14.5608 25.1553C14.6585 25.2514 14.736 25.366 14.7889 25.4923C14.8418 25.6186 14.8691 25.7542 14.8691 25.8912C14.8691 26.0282 14.8418 26.1638 14.7889 26.2901C14.736 26.4165 14.6585 26.531 14.5608 26.6271L13.2238 27.9553C13.027 28.1514 12.7605 28.2615 12.4827 28.2615C12.2049 28.2615 11.9384 28.1514 11.7416 27.9553C11.644 27.8593 11.5664 27.7447 11.5135 27.6184C11.4606 27.492 11.4333 27.3564 11.4333 27.2195C11.4333 27.0825 11.4606 26.9469 11.5135 26.8205C11.5664 26.6942 11.644 26.5797 11.7416 26.4836L13.0786 25.1536C13.2754 24.9575 13.5419 24.8474 13.8197 24.8474C14.0975 24.8474 14.364 24.9575 14.5608 25.1536M23.2793 32.7241C23.377 32.8202 23.4545 32.9347 23.5074 33.061C23.5603 33.1874 23.5876 33.323 23.5876 33.46C23.5876 33.5969 23.5603 33.7325 23.5074 33.8589C23.4545 33.9852 23.377 34.0998 23.2793 34.1958L21.9423 35.5258C21.7455 35.7219 21.479 35.832 21.2012 35.832C20.9234 35.832 20.6569 35.7219 20.4601 35.5258C20.293 35.3613 20.187 35.1449 20.1593 34.912C20.1316 34.6792 20.184 34.4439 20.3078 34.2448L20.3131 34.2378C20.3549 34.1707 20.4043 34.1084 20.4601 34.0523L21.7971 32.7241C21.9939 32.528 22.2604 32.4179 22.5382 32.4179C22.816 32.4179 23.0825 32.528 23.2793 32.7241ZM14.1793 15.7001C15.1524 14.7337 16.349 14.0224 17.6629 13.6295C18.9769 13.2366 20.3675 13.1742 21.7113 13.4478L19.1966 15.3553C18.8111 15.6474 18.4872 16.0128 18.2434 16.4305C17.9996 16.8481 17.8408 17.3099 17.7761 17.7891C17.7114 18.2684 17.742 18.7557 17.8663 19.2231C17.9905 19.6905 18.2059 20.1287 18.5001 20.5126C19.0951 21.2887 19.9731 21.798 20.9423 21.9291C21.9115 22.0603 22.8932 21.8027 23.6731 21.2126L27.1976 18.5438H28.7883L32.1798 21.9126L32.1868 21.9038L35.0008 24.7546L35.0428 24.7948L36.5566 26.3086C36.8773 26.6331 37.0616 27.0681 37.0716 27.5243C37.0816 27.9804 36.9166 28.4231 36.6103 28.7613C36.3041 29.0996 35.88 29.3077 35.4251 29.343C34.9702 29.3783 34.5191 29.2381 34.1643 28.9511L34.0366 28.8251L33.9421 28.7428L32.4546 27.2553C32.2905 27.091 32.0679 26.9986 31.8357 26.9985C31.6035 26.9983 31.3808 27.0904 31.2165 27.2545C31.0522 27.4185 30.9598 27.6411 30.9596 27.8733C30.9594 28.1055 31.0515 28.3283 31.2156 28.4926L32.7941 30.0711C32.8548 30.1294 32.916 30.186 32.9778 30.2408L33.0303 30.2933C33.2573 30.5201 33.3849 30.8277 33.3851 31.1485C33.3852 31.4693 33.2579 31.777 33.0312 32.004C32.8045 32.2309 32.4969 32.3585 32.1761 32.3587C31.8553 32.3588 31.5476 32.2316 31.3206 32.0048L31.0878 31.7738C30.9647 31.6511 30.8079 31.5678 30.6372 31.5346C30.4666 31.5014 30.29 31.5197 30.1298 31.5873C29.9697 31.6549 29.8333 31.7687 29.738 31.9141C29.6428 32.0595 29.593 32.23 29.5951 32.4038C29.5928 32.5215 29.6142 32.6383 29.6581 32.7475C29.702 32.8566 29.7675 32.9558 29.8506 33.0391L30.1568 33.3453C30.2595 33.4479 30.3409 33.5698 30.3964 33.7038C30.4519 33.8379 30.4805 33.9816 30.4805 34.1267C30.4805 34.2718 30.4519 34.4155 30.3964 34.5496C30.3409 34.6837 30.2595 34.8055 30.1568 34.9081C30.0542 35.0107 29.9324 35.0921 29.7983 35.1476C29.6643 35.2032 29.5206 35.2317 29.3755 35.2317C29.2304 35.2317 29.0867 35.2032 28.9526 35.1476C28.8185 35.0921 28.6967 35.0107 28.5941 34.9081L28.4383 34.7506C28.3851 34.6886 28.3296 34.6285 28.2721 34.5703L27.9868 34.2851C27.8218 34.1257 27.6008 34.0375 27.3714 34.0395C27.1419 34.0415 26.9225 34.1335 26.7603 34.2957C26.598 34.458 26.506 34.6774 26.504 34.9069C26.502 35.1363 26.5902 35.3573 26.7496 35.5223L26.9631 35.7358C26.9899 35.7708 27.0191 35.8053 27.0506 35.8391L27.1363 35.9231C27.3109 36.1495 27.3934 36.4336 27.3675 36.7183C27.3415 37.003 27.2089 37.2675 26.9963 37.4586C26.7837 37.6498 26.5067 37.7536 26.2208 37.7492C25.935 37.7448 25.6613 37.6326 25.4546 37.4351L23.9408 36.0088L24.5218 35.4313C24.7819 35.1736 24.9882 34.867 25.1291 34.529C25.2699 34.1911 25.3424 33.8287 25.3424 33.4626C25.3424 33.0965 25.2699 32.734 25.1291 32.3961C24.9882 32.0582 24.7819 31.7516 24.5218 31.4938C24.0148 30.9886 23.3334 30.6968 22.6178 30.6783C22.5985 29.9664 22.3051 29.2893 21.7988 28.7883C21.2922 28.2835 20.6116 27.9917 19.8966 27.9728C19.8767 27.2606 19.5827 26.5836 19.0758 26.0828C18.752 25.7592 18.3537 25.52 17.9159 25.386C17.4781 25.2521 17.0141 25.2276 16.5646 25.3146C16.4505 24.7865 16.1862 24.3028 15.8033 23.9216C15.3103 23.4334 14.6544 23.1444 13.9614 23.1098C13.2684 23.0753 12.587 23.2976 12.0478 23.7343C11.6565 22.3266 11.6481 20.8399 12.0234 19.4279C12.3987 18.0158 13.1442 16.7295 14.1828 15.7018" fill="#1A760D"/>
</svg>
