<svg width="50" height="50" viewBox="0 0 50 50" fill="none" xmlns="http://www.w3.org/2000/svg">
<circle cx="25" cy="25" r="24.5" stroke="#F8B735"/>
<path d="M31.2757 9.50757C30.0597 9.99634 27.9244 10.9125 27.2381 11.9438C27.1124 12.4381 27.1018 12.8658 27.1451 13.3341C27.8709 13.5067 29.6441 13.7592 30.2097 13.3731C31.0644 12.1754 31.2136 10.8622 31.2757 9.50757ZM18.4778 14.3713C18.7934 15.1238 19.6201 16.6804 20.3019 16.9775C21.2724 17.0174 22.0555 16.7072 22.8865 16.2909C22.8653 15.8485 22.8024 15.4137 22.5913 14.9958C21.2281 14.3007 19.9059 14.2855 18.4778 14.3713ZM26.2068 14.3591C26.4318 15.2718 26.5301 16.2923 26.5397 17.3519C25.8692 16.8681 25.0526 16.5096 24.1181 16.209C24.1575 17.0467 24.2431 16.974 23.5668 17.3249C24.9402 17.7498 25.8972 18.2572 26.4916 18.9714C26.3748 20.7703 26.0653 22.5819 25.7374 24.0909C23.7538 24.1496 21.2067 24.43 18.9909 24.8824L21.1479 25.961L16.8559 25.4095C15.7873 25.5863 14.2623 26.1693 14.1293 26.8817C14.4436 28.6359 17.2817 29.4213 18.6576 29.7828C21.3875 30.4886 24.7696 30.7887 27.084 30.7233C28.1777 30.6923 29.6035 30.4976 31.0667 30.1896L28.5485 27.6435L32.7015 29.8008C34.3256 29.3149 36.0473 28.8525 37.4339 27.8866C37.6569 27.6877 38.2468 27.3161 38.1357 26.9695C37.9995 26.556 37.5512 26.1125 36.7805 25.7218C36.0098 25.3311 34.9587 25.0079 33.7935 24.7639C32.0297 24.3944 30.0045 24.1999 28.2314 24.1214L27.5952 27.3129C25.9364 28.8278 23.4272 27.9569 23.0934 26.6478L24.3115 26.4758C24.9138 27.14 25.9282 27.0261 26.4763 26.633C26.6628 25.4 27.043 24.048 27.2563 22.9156C28.5903 22.6948 29.6419 22.0481 30.4975 21.1575C30.034 21.0227 29.893 20.5521 29.7519 20.1422C29.1304 20.8266 28.3275 21.4251 27.4749 21.6338C27.8161 19.3833 27.9644 16.8792 27.5362 14.6708C27.0869 14.5939 26.6444 14.4851 26.2068 14.3591ZM30.7414 18.7201C30.6316 19.8339 31.1787 20.1215 32.1849 20.2727C32.6377 19.6537 32.7877 19.0345 32.8883 18.3429C32.2315 18.4343 31.2106 18.1578 30.7414 18.7201ZM30.7414 18.7201C30.7407 18.7202 30.7393 18.7218 30.7366 18.7254C30.7378 18.7238 30.7401 18.7217 30.7414 18.7201ZM38.0661 28.9449C36.6038 29.8307 35.2955 30.3254 33.8196 30.7656L33.0976 33.8561L31.8271 31.2874C30.1393 31.6718 28.4558 31.9152 27.1187 31.9531C24.6676 32.0224 21.2334 31.7196 18.3497 30.9741C16.8772 30.4892 15.4149 30.0967 14.2868 29.2528L13.3766 35.9406L9.42041 40.0624C11.3468 39.9328 13.229 40.8279 14.8546 40.4452C15.549 40.2774 16.5133 39.9246 17.9197 39.282L21.2155 36.572L19.4673 39.4219C22.6868 40.8839 25.7277 40.2406 28.5904 39.0305L27.6997 34.1956L30.4975 38.6623C33.5593 41.1753 37.202 42.0585 40.8276 41.1358C41.1302 41.0572 41.3747 40.9752 41.5795 40.8977L39.2673 37.5507L37.7486 39.1861L38.5879 34.7538L38.0661 28.9449Z" fill="#F8B735"/>
</svg>
