<svg width="25" height="25" viewBox="0 0 25 25" fill="none" xmlns="http://www.w3.org/2000/svg">
<path d="M8.12492 2.0835H16.8749C20.2083 2.0835 22.9166 4.79183 22.9166 8.12516V16.8752C22.9166 18.4775 22.2801 20.0142 21.147 21.1473C20.014 22.2803 18.4773 22.9168 16.8749 22.9168H8.12492C4.79159 22.9168 2.08325 20.2085 2.08325 16.8752V8.12516C2.08325 6.52281 2.71978 4.98609 3.85282 3.85306C4.98585 2.72003 6.52257 2.0835 8.12492 2.0835ZM7.91659 4.16683C6.92202 4.16683 5.9682 4.56192 5.26494 5.26518C4.56167 5.96844 4.16659 6.92227 4.16659 7.91683V17.0835C4.16659 19.1564 5.84367 20.8335 7.91659 20.8335H17.0833C18.0778 20.8335 19.0316 20.4384 19.7349 19.7351C20.4382 19.0319 20.8333 18.0781 20.8333 17.0835V7.91683C20.8333 5.84391 19.1562 4.16683 17.0833 4.16683H7.91659ZM17.9687 5.72933C18.314 5.72933 18.6452 5.86651 18.8894 6.1107C19.1336 6.35489 19.2708 6.68608 19.2708 7.03141C19.2708 7.37675 19.1336 7.70794 18.8894 7.95213C18.6452 8.19631 18.314 8.3335 17.9687 8.3335C17.6233 8.3335 17.2921 8.19631 17.048 7.95213C16.8038 7.70794 16.6666 7.37675 16.6666 7.03141C16.6666 6.68608 16.8038 6.35489 17.048 6.1107C17.2921 5.86651 17.6233 5.72933 17.9687 5.72933ZM12.4999 7.29183C13.8813 7.29183 15.206 7.84056 16.1828 8.81732C17.1595 9.79407 17.7083 11.1188 17.7083 12.5002C17.7083 13.8815 17.1595 15.2063 16.1828 16.183C15.206 17.1598 13.8813 17.7085 12.4999 17.7085C11.1186 17.7085 9.79382 17.1598 8.81707 16.183C7.84032 15.2063 7.29159 13.8815 7.29159 12.5002C7.29159 11.1188 7.84032 9.79407 8.81707 8.81732C9.79382 7.84056 11.1186 7.29183 12.4999 7.29183ZM12.4999 9.37516C11.6711 9.37516 10.8763 9.7044 10.2902 10.2905C9.70416 10.8765 9.37492 11.6714 9.37492 12.5002C9.37492 13.329 9.70416 14.1238 10.2902 14.7099C10.8763 15.2959 11.6711 15.6252 12.4999 15.6252C13.3287 15.6252 14.1236 15.2959 14.7096 14.7099C15.2957 14.1238 15.6249 13.329 15.6249 12.5002C15.6249 11.6714 15.2957 10.8765 14.7096 10.2905C14.1236 9.7044 13.3287 9.37516 12.4999 9.37516Z" fill="#571217"/>
</svg>
