<svg width="31" height="30" viewBox="0 0 31 30" fill="none" xmlns="http://www.w3.org/2000/svg">
<path d="M15.9143 14.375C15.0855 14.375 14.2906 14.0458 13.7046 13.4597C13.1185 12.8737 12.7893 12.0788 12.7893 11.25C12.7893 10.4212 13.1185 9.62634 13.7046 9.04029C14.2906 8.45424 15.0855 8.125 15.9143 8.125C16.7431 8.125 17.538 8.45424 18.124 9.04029C18.7101 9.62634 19.0393 10.4212 19.0393 11.25C19.0393 11.6604 18.9585 12.0667 18.8014 12.4459C18.6444 12.825 18.4142 13.1695 18.124 13.4597C17.8338 13.7499 17.4893 13.9801 17.1102 14.1371C16.7311 14.2942 16.3247 14.375 15.9143 14.375ZM15.9143 2.5C13.5937 2.5 11.3681 3.42187 9.72712 5.06282C8.08618 6.70376 7.16431 8.92936 7.16431 11.25C7.16431 17.8125 15.9143 27.5 15.9143 27.5C15.9143 27.5 24.6643 17.8125 24.6643 11.25C24.6643 8.92936 23.7424 6.70376 22.1015 5.06282C20.4605 3.42187 18.235 2.5 15.9143 2.5Z" fill="#571217"/>
</svg>
