<svg width="40" height="40" viewBox="0 0 40 40" fill="none" xmlns="http://www.w3.org/2000/svg">
<path d="M9.99992 11.6667H18.3333C18.7753 11.6667 19.1992 11.8423 19.5118 12.1548C19.8243 12.4674 19.9999 12.8913 19.9999 13.3334C19.9999 13.7754 19.8243 14.1993 19.5118 14.5119C19.1992 14.8244 18.7753 15 18.3333 15H9.99992C9.55789 15 9.13397 14.8244 8.82141 14.5119C8.50885 14.1993 8.33325 13.7754 8.33325 13.3334C8.33325 12.8913 8.50885 12.4674 8.82141 12.1548C9.13397 11.8423 9.55789 11.6667 9.99992 11.6667ZM21.6666 25H29.9999C30.4419 25 30.8659 25.1756 31.1784 25.4882C31.491 25.8007 31.6666 26.2247 31.6666 26.6667C31.6666 27.1087 31.491 27.5326 31.1784 27.8452C30.8659 28.1578 30.4419 28.3334 29.9999 28.3334H21.6666C21.2246 28.3334 20.8006 28.1578 20.4881 27.8452C20.1755 27.5326 19.9999 27.1087 19.9999 26.6667C19.9999 26.2247 20.1755 25.8007 20.4881 25.4882C20.8006 25.1756 21.2246 25 21.6666 25ZM9.99992 18.3334H29.9999C30.4419 18.3334 30.8659 18.5089 31.1784 18.8215C31.491 19.1341 31.6666 19.558 31.6666 20C31.6666 20.442 31.491 20.866 31.1784 21.1785C30.8659 21.4911 30.4419 21.6667 29.9999 21.6667H9.99992C9.55789 21.6667 9.13397 21.4911 8.82141 21.1785C8.50885 20.866 8.33325 20.442 8.33325 20C8.33325 19.558 8.50885 19.1341 8.82141 18.8215C9.13397 18.5089 9.55789 18.3334 9.99992 18.3334Z" fill="#571217"/>
</svg>
