<svg width="50" height="50" viewBox="0 0 50 50" fill="none" xmlns="http://www.w3.org/2000/svg">
<circle cx="25" cy="25" r="24.5" stroke="#F38218"/>
<path d="M28.4326 9.66187C27.4141 9.68237 26.6826 9.88062 26.1973 10.2361L19.5459 13.7976L15.8477 18.8282C15.0684 20.0313 15.6221 22.3555 18.0557 20.8653L20.7217 17.3516C24.1055 14.4334 31.0098 15.7725 27.7354 21.6309C26.1289 25.0215 26.8809 26.6758 28.9522 27.3731L29.8955 24.2012C31.5293 20.5235 34.5782 19.8604 34.4551 16.8936L41.7832 17.42L41.7149 9.75757L28.4326 9.66187ZM24.7344 16.7295C23.545 16.709 22.376 17.2012 21.5283 17.9122L18.8555 21.4258C19.5869 22.0069 20.3252 21.6924 21.0567 20.9883C21.918 21.4258 22.5879 20.7491 23.1348 19.3956C23.3604 18.4727 23.6953 17.8233 24.7344 16.7295ZM19.293 23.292C19.2657 23.292 19.2315 23.292 19.2041 23.2989C18.9785 23.3467 18.7119 23.586 18.5342 24.1329C18.3496 24.6797 18.3086 25.459 18.4727 26.293C18.6367 27.1202 18.9785 27.8243 19.3614 28.2618C19.7305 28.6924 20.0723 28.8155 20.2979 28.7676C20.5303 28.7266 20.7901 28.4805 20.9678 27.9405C21.1524 27.3936 21.2002 26.6075 21.0362 25.7803C20.8653 24.9463 20.5235 24.2422 20.1475 23.8116C19.8194 23.4288 19.5186 23.292 19.293 23.292ZM24.9395 30.5928C24.3994 30.5997 23.7227 30.7706 23.0596 31.0918C22.3008 31.4678 21.7061 31.9874 21.3848 32.4659C21.0635 32.9375 21.0362 33.293 21.1387 33.5049C21.2412 33.71 21.542 33.9083 22.1162 33.9356C22.6905 33.9698 23.4629 33.8125 24.2217 33.4366C24.9805 33.0606 25.5752 32.5479 25.8965 32.0694C26.2178 31.5977 26.2451 31.2354 26.1426 31.0303C26.0401 30.8184 25.7393 30.627 25.1651 30.5997C25.0899 30.5928 25.0215 30.5928 24.9395 30.5928ZM18.2676 37.128C17.9463 37.1348 17.6524 37.1827 17.3926 37.2579C16.8116 37.4288 16.4766 37.7364 16.3672 38.0987C16.251 38.4678 16.3672 38.9053 16.7569 39.377C17.1534 39.8418 17.8164 40.2862 18.6367 40.5323C19.4502 40.7784 20.2432 40.7715 20.8311 40.5938C21.419 40.4229 21.7539 40.1153 21.8633 39.753C21.9727 39.3838 21.8633 38.9463 21.4668 38.4747C21.0772 38.0098 20.4141 37.5655 19.5938 37.3194C19.1289 37.1827 18.6778 37.1211 18.2676 37.128Z" fill="#F38218"/>
</svg>
