<svg width="31" height="30" viewBox="0 0 31 30" fill="none" xmlns="http://www.w3.org/2000/svg">
<path d="M9.18931 13.4875C10.9893 17.025 13.8893 19.9125 17.4268 21.725L20.1768 18.975C20.5143 18.6375 21.0143 18.525 21.4518 18.675C22.8518 19.1375 24.3643 19.3875 25.9143 19.3875C26.6018 19.3875 27.1643 19.95 27.1643 20.6375V25C27.1643 25.6875 26.6018 26.25 25.9143 26.25C14.1768 26.25 4.66431 16.7375 4.66431 5C4.66431 4.3125 5.22681 3.75 5.91431 3.75H10.2893C10.9768 3.75 11.5393 4.3125 11.5393 5C11.5393 6.5625 11.7893 8.0625 12.2518 9.4625C12.3893 9.9 12.2893 10.3875 11.9393 10.7375L9.18931 13.4875Z" fill="#571217"/>
</svg>
