<svg width="35" height="35" viewBox="0 0 35 35" fill="none" xmlns="http://www.w3.org/2000/svg">
<path d="M5.30402 5.00784L18.0499 17.5072L5.39881 30.1218C5.19184 29.8523 5.03117 29.5501 4.9234 29.2278C4.86766 28.8629 4.86766 28.4917 4.9234 28.1268V6.66013C4.88548 6.08409 5.01819 5.50805 5.30256 5.00784M23.5405 12.056L19.3799 16.1772L6.78569 3.79159C7.19402 3.65013 7.63152 3.61075 8.05881 3.67784C8.72965 3.86159 9.36985 4.1445 9.95756 4.51346L21.3559 10.8208C22.0967 11.2189 22.8186 11.6374 23.5405 12.056ZM19.3813 18.8562L23.5215 22.922L20.5203 24.5933L11.3634 29.6828C10.6051 30.1014 9.84381 30.501 9.10298 30.9574C8.78598 31.1548 8.43052 31.2822 8.06034 31.3313C7.69015 31.3803 7.31377 31.3498 6.95631 31.2418L19.3813 18.8562ZM30.1146 17.5072C30.1253 18.0172 29.9964 18.5203 29.742 18.9624C29.4875 19.4044 29.1172 19.7686 28.6709 20.0155L25.2496 21.9143L20.7478 17.5072L25.2686 13.0243C26.428 13.6703 27.5684 14.3164 28.7074 14.9245C29.1616 15.1784 29.5347 15.5557 29.7835 16.0127C30.0322 16.4698 30.148 16.9879 30.1146 17.5072Z" fill="white"/>
</svg>
