<svg width="50" height="50" viewBox="0 0 50 50" fill="none" xmlns="http://www.w3.org/2000/svg">
<circle cx="25" cy="25" r="24.5" stroke="#571217"/>
<path d="M31.5922 38.3516C29.6891 39.2565 27.6074 39.7237 25.5 39.7188C17.66 39.7188 11.2813 33.34 11.2813 25.5C11.2813 22.1367 12.4374 18.9605 14.5625 16.4131V18.9375H16.75V12.375H10.1875V14.5625H13.296C10.5841 17.5591 9.08594 21.4585 9.09378 25.5C9.09378 34.5464 16.4536 41.9062 25.5 41.9062C27.9328 41.9113 30.3358 41.3717 32.5328 40.3269L31.5922 38.3516Z" fill="#571217"/>
<path d="M30.9688 17.8438C27.5125 17.8438 24.6786 20.5311 24.4303 23.925C23.2279 22.8278 21.659 22.2193 20.0312 22.2188H15.6562V26.5938C15.6562 30.213 18.6006 33.1562 22.2188 33.1562H24.4062V37.5312H26.5938V28.7812H28.7812C32.3994 28.7812 35.3438 25.838 35.3438 22.2188V17.8438H30.9688ZM22.2188 30.9688C19.8059 30.9688 17.8438 29.0066 17.8438 26.5938V24.4062H20.0312C22.4441 24.4062 24.4062 26.3684 24.4062 28.7812V29.4222L21.8983 26.9142L20.3517 28.4608L22.8597 30.9688H22.2188ZM33.1562 22.2188C33.1562 24.6316 31.1941 26.5938 28.7812 26.5938H28.1403L30.6483 24.0858L29.1017 22.5392L26.5938 25.0472V24.4062C26.5938 21.9934 28.5559 20.0312 30.9688 20.0312H33.1562V22.2188Z" fill="#571217"/>
<path d="M41.9063 25.5C41.9063 16.4536 34.5465 9.09379 25.5001 9.09379C23.0673 9.08872 20.6643 9.62838 18.4673 10.6732L19.4079 12.6485C21.3111 11.7435 23.3928 11.2763 25.5001 11.2813C33.3401 11.2813 39.7188 17.66 39.7188 25.5C39.7188 28.8633 38.5628 32.0396 36.4376 34.5869V32.0625H34.2501V38.625H40.8126V36.4375H37.7042C40.416 33.441 41.9142 29.5415 41.9063 25.5Z" fill="#571217"/>
</svg>
