<svg width="25" height="25" viewBox="0 0 25 25" fill="none" xmlns="http://www.w3.org/2000/svg">
<path fill-rule="evenodd" clip-rule="evenodd" d="M5.67718 4.81579C7.28864 3.09808 9.6251 2.0835 12.5178 2.0835C17.273 2.0835 20.4261 4.82412 21.4241 8.62204C21.4942 8.88933 21.4553 9.17354 21.316 9.41216C21.1766 9.65078 20.9481 9.82426 20.6808 9.89443C20.4135 9.96461 20.1293 9.92572 19.8907 9.78634C19.6521 9.64696 19.4786 9.41849 19.4084 9.1512C18.6511 6.27308 16.3293 4.16683 12.5168 4.16683C10.1355 4.16683 8.37093 4.9887 7.19801 6.23975C6.01468 7.50225 5.35531 9.28454 5.35531 11.3283V13.672C5.35531 15.7158 6.01468 17.4981 7.19801 18.7595C8.37093 20.0127 10.1355 20.8335 12.5168 20.8335C14.2407 20.8335 15.6084 20.4335 16.6584 19.7866C17.7157 19.1356 18.3459 18.272 18.523 17.2814C18.7261 16.1397 18.4761 15.3564 18.0459 14.7908C17.81 14.4865 17.5231 14.2253 17.198 14.0189C17.0574 14.7991 16.8063 15.5356 16.4272 16.1127C15.0293 18.2366 12.3563 18.4189 10.5938 17.7158C9.63968 17.3356 8.82197 16.295 8.56781 15.1793C8.41349 14.5399 8.46489 13.8681 8.71468 13.2595C8.99072 12.597 9.50218 12.0325 10.2303 11.6033C10.9511 11.1772 12.022 10.9814 13.0834 10.9522C13.723 10.9345 14.4168 10.9772 15.1147 11.0908C14.9688 10.4137 14.722 9.9085 14.4438 9.64912C13.9397 9.18037 13.1043 8.85016 12.2668 8.85537C11.4574 8.86162 10.7709 9.17308 10.3605 9.82933C10.2141 10.0636 9.9806 10.2301 9.71141 10.2922C9.44222 10.3544 9.15937 10.307 8.9251 10.1606C8.69082 10.0142 8.52431 9.78067 8.46219 9.51148C8.40007 9.24228 8.44743 8.95944 8.59385 8.72516C9.46572 7.33141 10.9022 6.78245 12.2532 6.77204C13.5761 6.76266 14.9386 7.2637 15.8636 8.12412C16.7991 8.99495 17.2011 10.4231 17.3053 11.722C18.2157 12.1189 19.0761 12.7012 19.7063 13.5314C20.5199 14.6043 20.8699 15.9877 20.5741 17.647C20.272 19.3387 19.2043 20.6658 17.7511 21.5606C16.3261 22.4377 14.5678 22.9168 12.5168 22.9168C9.6251 22.9168 7.2876 21.9022 5.67822 20.1845C4.07822 18.4783 3.27197 16.1595 3.27197 13.672V11.3283C3.27197 8.84079 4.07822 6.52204 5.67822 4.81579H5.67718ZM15.2084 13.2293C14.529 13.0828 13.8345 13.0178 13.1397 13.0356C12.2116 13.0606 11.5605 13.2366 11.2886 13.397C10.8886 13.6335 10.7157 13.8741 10.6386 14.0606C10.5564 14.2696 10.5425 14.4994 10.5991 14.7168C10.7261 15.2752 11.1459 15.6939 11.3657 15.7804C12.5386 16.2491 14.0063 16.0012 14.6866 14.9679C14.9313 14.595 15.1261 13.9679 15.2074 13.2293H15.2084Z" fill="#F8B735"/>
</svg>
