<svg width="30" height="30" viewBox="0 0 30 30" fill="none" xmlns="http://www.w3.org/2000/svg">
<g clip-path="url(#clip0_22_749)">
<path d="M15 0.216974C6.92308 0.216974 0.215771 6.06005 0.215771 13.4124C0.215771 16.8716 1.83923 19.912 4.25423 22.2462C4.16077 23.5835 3.48923 24.3831 2.56039 25.1677C2.06077 25.5877 1.50808 25.9812 1.00962 26.4658C0.511156 26.9504 1.77571e-06 27.6081 1.77571e-06 28.5197C-0.000447451 28.7758 0.0843504 29.0248 0.241032 29.2275C0.397714 29.4301 0.61737 29.5749 0.865386 29.6389C3.03231 30.2193 5.36539 29.7912 7.5 29.0251C9.42231 28.3351 11.0446 27.3139 12.3323 26.3216C13.2023 26.4647 14.0792 26.5731 15 26.5731C23.0769 26.5731 29.7842 20.7647 29.7842 13.4124C29.7842 6.0612 23.0769 0.216974 15 0.216974ZM15 2.52467C21.9762 2.52467 27.4765 7.47467 27.4765 13.4135C27.4765 19.3535 21.9762 24.2666 15 24.2666C14.0942 24.2666 13.2265 24.2124 12.3681 24.0508C12.2 24.0116 12.0252 24.0107 11.8566 24.048C11.6881 24.0854 11.5301 24.1601 11.3942 24.2666C10.3523 25.1424 8.60423 26.1947 6.74308 26.8627C5.59616 27.2747 4.43539 27.4627 3.35308 27.5124C3.59539 27.3162 3.78808 27.1777 4.07423 26.9354C5.23616 25.9547 6.63462 24.3785 6.63462 21.9947C6.63383 21.8305 6.59802 21.6684 6.52957 21.5191C6.46112 21.3699 6.36161 21.237 6.23769 21.1293C3.93 19.1377 2.52462 16.4239 2.52462 13.4135C2.52462 7.47236 8.02385 2.52467 15 2.52467ZM15 5.84082C13.3096 5.84082 11.8627 7.00621 11.8627 9.19505C11.8627 10.6224 12.5365 12.0508 13.4135 12.9451C13.755 13.8416 13.1458 14.1958 13.0165 14.2431C11.2477 14.8824 9.15808 16.0466 9.15808 17.1993V17.632C9.15808 19.2012 12.1846 19.5427 15 19.5427C17.82 19.5427 20.8419 19.2012 20.8419 17.632V17.1993C20.8419 16.0143 18.7685 14.857 16.9108 14.2431C16.8254 14.2154 16.2888 13.9616 16.6223 12.9451C17.4935 12.0474 18.1373 10.6177 18.1373 9.19505C18.1373 7.00736 16.6904 5.84082 15 5.84082Z" fill="#F38218"/>
</g>
<defs>
<clipPath id="clip0_22_749">
<rect width="30" height="30" rx="15" fill="white"/>
</clipPath>
</defs>
</svg>
