<svg width="50" height="51" viewBox="0 0 50 51" fill="none" xmlns="http://www.w3.org/2000/svg">
<circle cx="25" cy="25.5" r="24.5" stroke="#F38218"/>
<path d="M18.2084 14.3334C17.8216 14.3334 17.4507 14.4871 17.1772 14.7606C16.9037 15.034 16.7501 15.405 16.7501 15.7917C16.7501 16.1785 16.9037 16.5495 17.1772 16.8229C17.4507 17.0964 17.8216 17.2501 18.2084 17.2501C18.5952 17.2501 18.9661 17.0964 19.2396 16.8229C19.5131 16.5495 19.6667 16.1785 19.6667 15.7917C19.6667 15.405 19.5131 15.034 19.2396 14.7606C18.9661 14.4871 18.5952 14.3334 18.2084 14.3334ZM13.8334 15.7917C13.8334 15.2172 13.9466 14.6483 14.1664 14.1175C14.3863 13.5867 14.7086 13.1044 15.1148 12.6982C15.5211 12.2919 16.0034 11.9696 16.5342 11.7498C17.065 11.5299 17.6339 11.4167 18.2084 11.4167C18.7829 11.4167 19.3519 11.5299 19.8827 11.7498C20.4135 11.9696 20.8958 12.2919 21.302 12.6982C21.7083 13.1044 22.0305 13.5867 22.2504 14.1175C22.4703 14.6483 22.5834 15.2172 22.5834 15.7917C22.5834 16.9521 22.1225 18.0649 21.302 18.8853C20.4815 19.7058 19.3687 20.1667 18.2084 20.1667C17.0481 20.1667 15.9353 19.7058 15.1148 18.8853C14.2944 18.0649 13.8334 16.9521 13.8334 15.7917ZM18.2084 34.7501C18.2084 33.9765 18.5157 33.2347 19.0627 32.6877C19.6097 32.1407 20.3515 31.8334 21.1251 31.8334H29.8751C30.6486 31.8334 31.3905 32.1407 31.9375 32.6877C32.4845 33.2347 32.7917 33.9765 32.7917 34.7501V35.2372C32.7917 36.9492 31.7505 38.323 30.4351 39.198C29.108 40.0876 27.358 40.5834 25.5001 40.5834C23.6422 40.5834 21.8922 40.0847 20.5651 39.198C19.2526 38.323 18.2084 36.9492 18.2084 35.2372V34.7501ZM21.1251 34.7501V35.2372C21.1251 35.6717 21.3876 36.2434 22.1838 36.7713C22.9713 37.2963 24.138 37.6667 25.5001 37.6667C26.8622 37.6667 28.0317 37.2963 28.8163 36.7713C29.6097 36.2434 29.8751 35.6717 29.8751 35.2372V34.7501H21.1251ZM31.3334 15.7917C31.3334 15.405 31.4871 15.034 31.7605 14.7606C32.034 14.4871 32.405 14.3334 32.7917 14.3334C33.1785 14.3334 33.5495 14.4871 33.8229 14.7606C34.0964 15.034 34.2501 15.405 34.2501 15.7917C34.2501 16.1785 34.0964 16.5495 33.8229 16.8229C33.5495 17.0964 33.1785 17.2501 32.7917 17.2501C32.405 17.2501 32.034 17.0964 31.7605 16.8229C31.4871 16.5495 31.3334 16.1785 31.3334 15.7917ZM32.7917 11.4167C31.6314 11.4167 30.5186 11.8777 29.6982 12.6982C28.8777 13.5186 28.4167 14.6314 28.4167 15.7917C28.4167 16.9521 28.8777 18.0649 29.6982 18.8853C30.5186 19.7058 31.6314 20.1667 32.7917 20.1667C33.9521 20.1667 35.0649 19.7058 35.8853 18.8853C36.7058 18.0649 37.1667 16.9521 37.1667 15.7917C37.1667 14.6314 36.7058 13.5186 35.8853 12.6982C35.0649 11.8777 33.9521 11.4167 32.7917 11.4167ZM25.5001 23.0834C25.1133 23.0834 24.7424 23.2371 24.4689 23.5106C24.1954 23.784 24.0417 24.155 24.0417 24.5417C24.0417 24.9285 24.1954 25.2995 24.4689 25.5729C24.7424 25.8464 25.1133 26.0001 25.5001 26.0001C25.8869 26.0001 26.2578 25.8464 26.5313 25.5729C26.8048 25.2995 26.9584 24.9285 26.9584 24.5417C26.9584 24.155 26.8048 23.784 26.5313 23.5106C26.2578 23.2371 25.8869 23.0834 25.5001 23.0834ZM21.1251 24.5417C21.1251 23.3814 21.586 22.2686 22.4065 21.4482C23.227 20.6277 24.3398 20.1667 25.5001 20.1667C26.6604 20.1667 27.7732 20.6277 28.5937 21.4482C29.4141 22.2686 29.8751 23.3814 29.8751 24.5417C29.8751 25.7021 29.4141 26.8149 28.5937 27.6353C27.7732 28.4558 26.6604 28.9167 25.5001 28.9167C24.3398 28.9167 23.227 28.4558 22.4065 27.6353C21.586 26.8149 21.1251 25.7021 21.1251 24.5417ZM18.3542 23.0834H13.8334C13.0599 23.0834 12.318 23.3907 11.771 23.9377C11.224 24.4847 10.9167 25.2265 10.9167 26.0001V26.6038C10.9167 28.3422 11.9172 29.7713 13.2413 30.7076C14.0347 31.2705 14.9826 31.6876 16.018 31.9326C16.3906 31.2558 16.8939 30.6598 17.4988 30.1791C18.1036 29.6985 18.7979 29.3427 19.5413 29.1326C19.1233 29.2201 18.679 29.2648 18.2084 29.2667C16.8638 29.2667 15.7059 28.8788 14.9242 28.3276C14.1397 27.7734 13.8334 27.1376 13.8334 26.6038V26.0001H18.3542C18.1578 25.0378 18.1578 24.0457 18.3542 23.0834ZM32.6459 26.0001H37.1667V26.6038C37.1667 27.1405 36.8605 27.7705 36.0759 28.3247C35.2942 28.8788 34.1363 29.2667 32.7917 29.2667C32.3212 29.2667 31.8769 29.223 31.4588 29.1355C32.9755 29.5613 34.2384 30.5822 34.9822 31.9326C36.0176 31.6876 36.9655 31.2705 37.7588 30.7076C39.083 29.7742 40.0834 28.3422 40.0834 26.6038V26.0001C40.0834 25.2265 39.7761 24.4847 39.2291 23.9377C38.6822 23.3907 37.9403 23.0834 37.1667 23.0834H32.6459C32.8423 24.0457 32.8423 25.0378 32.6459 26.0001Z" fill="#F38218"/>
</svg>
